<?xml version="1.0" encoding="utf-8"?>
<!-- Generator: Adobe Illustrator 16.0.1, SVG Export Plug-In . SVG Version: 6.00 Build 0)  -->
<!DOCTYPE svg PUBLIC "-//W3C//DTD SVG 1.1//EN" "http://www.w3.org/Graphics/SVG/1.1/DTD/svg11.dtd">
<svg version="1.1" id="Camada_1" xmlns="http://www.w3.org/2000/svg" xmlns:xlink="http://www.w3.org/1999/xlink" x="0px" y="0px"
	 width="527.974px" height="280.485px" viewBox="0 0 527.974 280.485" enable-background="new 0 0 527.974 280.485"
	 xml:space="preserve">
<g>
	<path fill-rule="evenodd" clip-rule="evenodd" fill="#FF0000" d="M15.896,268.402c3.212-8.862,6.599-17.666,9.603-26.598
		c9.917-29.482,19.697-59.011,29.516-88.526c0.459-1.379,0.779-2.805,1.344-4.861c-8.613,0-16.686,0-25.502,0
		c1.262-3.813,2.239-6.933,3.323-10.014C48.363,98.077,62.557,57.755,76.769,17.439c0.604-1.716,1.414-3.359,2.128-5.037
		c7.333,0,14.667,0,22,0c-3.163,9.961-6.207,19.963-9.512,29.876c-8.468,25.394-17.055,50.747-25.581,76.121
		c-0.408,1.215-0.686,2.475-1.219,4.423c7.658,0,14.867,0,23.059,0c-1.677,5.342-3.042,9.854-4.507,14.332
		c-14.161,43.298-28.341,86.589-42.497,129.889c-0.355,1.085-0.5,2.238-0.743,3.359c-7.195,0-14.39,0-21.585,0
		C16.953,270.402,15.298,270.764,15.896,268.402z"/>
	<path fill-rule="evenodd" clip-rule="evenodd" fill="#FF0000" d="M515.688,118.249c-15.006,5.652-29.095,11.138-43.329,16.217
		c-4.518,1.612-5.902,3.39-4.885,8.528c5.526,27.911,10.535,55.926,15.717,83.905c0.179,0.966,0.303,1.942,0.571,3.692
		c-5.788,1.412-11.485,2.803-17.977,4.388c-5.316-30.554-10.541-60.579-15.854-91.112c-11.394,3.175-22.135,6.025-32.748,9.292
		c-1.434,0.441-2.593,2.831-3.257,4.558c-9.312,24.232-18.59,48.479-27.66,72.804c-1.254,3.364-2.759,4.74-6.428,4.463
		c-4.777-0.361-9.603-0.089-15.266-0.089c4.142-11.062,7.879-21.166,11.705-31.236c19.503-51.334,39.083-102.639,58.451-154.023
		c1.644-4.36,3.915-7.353,8.119-9.351c4.646-2.207,9.019-4.991,14.135-7.877C476.413,60.817,495.815,89.188,515.688,118.249z
		 M425.438,126.999c0.396,0.422,0.793,0.844,1.189,1.267c20.383-6.411,40.767-12.822,61.738-19.419
		c-12.276-18.021-23.918-35.111-36.26-53.228C442.9,80.262,434.17,103.63,425.438,126.999z"/>
	<path fill-rule="evenodd" clip-rule="evenodd" fill="#FF0000" d="M261.172,228.901c1.324-3.102,2.31-5.508,3.369-7.881
		c24.825-55.639,49.688-111.26,74.417-166.941c1.569-3.533,3.661-5.366,7.407-6.383c23.612-6.41,47.156-13.071,70.725-19.639
		c1.727-0.481,3.476-0.881,5.746-1.453c1.04,6.01,2.272,11.689,2.802,17.434c0.103,1.116-2.339,3.193-3.934,3.629
		c-20.874,5.696-41.784,11.268-62.747,16.628c-3.615,0.925-5.609,2.63-7.057,6.05c-7.526,17.78-15.305,35.455-22.969,53.178
		c-0.502,1.161-0.786,2.416-1.336,4.143c12.55,0,24.609,0,37.564,0c-0.855,6.323-1.643,12.142-2.516,18.592
		c-4.788,0-9.395,0.013-14.002-0.002c-8.664-0.029-17.33-0.196-25.989-0.003c-1.622,0.036-4.099,1.077-4.687,2.347
		c-9.648,20.847-19.059,41.804-28.506,62.744c-0.194,0.432-0.181,0.957-0.389,2.155c23.637,2.623,47.168,5.234,71.204,7.901
		c-1.996,5.714-3.441,10.866-5.694,15.639c-0.617,1.309-3.729,2.238-5.564,2.05c-15.235-1.566-30.44-3.431-45.653-5.215
		C289.648,232.264,275.936,230.642,261.172,228.901z"/>
	<path fill-rule="evenodd" clip-rule="evenodd" fill="#FF0000" d="M232.058,23.233c0,54.288,0,108.047,0,162.078
		c-6.441,0-12.205,0-18.514,0c-0.111-2.018-0.292-3.787-0.292-5.557c-0.008-13.663-0.075-27.327,0.098-40.987
		c0.044-3.446-0.716-5.064-4.553-5.359c-15.11-1.161-30.208-2.53-45.28-4.106c-3.909-0.408-6.01,0.852-7.977,4.158
		c-7.66,12.879-15.687,25.54-23.401,38.388c-1.675,2.79-3.469,4.052-6.807,3.506c-4.566-0.745-9.201-1.066-14.834-1.682
		c9.581-15.64,18.783-30.662,28.249-46.115c-2.259-0.456-3.833-0.773-6.167-1.245c3.256-5.415,6.229-10.507,9.398-15.474
		c0.502-0.786,2.052-1.603,2.846-1.391c4.719,1.26,6.464-2.021,8.551-5.076c17.476-25.579,35.062-51.083,52.404-76.751
		c2.254-3.338,4.652-4.623,8.541-4.454C220.255,23.424,226.208,23.233,232.058,23.233z M169.435,111.467
		c2.173,0.462,3.106,0.771,4.058,0.845c11.441,0.877,22.905,1.529,34.319,2.667c4.305,0.43,5.517-0.862,5.487-5.036
		c-0.131-18.302,0-36.605,0.005-54.908c0-1.391-0.24-2.782-0.369-4.174c-0.351-0.121-0.702-0.241-1.053-0.362
		C197.9,70.581,183.918,90.664,169.435,111.467z"/>
	<path fill-rule="evenodd" clip-rule="evenodd" fill="#FF0000" d="M327.004,48.62c-5.948,13.185-11.48,25.442-17.01,37.702
		c-24.771,54.921-49.603,109.815-74.21,164.811c-2.118,4.733-4.502,7.078-9.892,6.404c-4.091-0.511-8.297-0.101-13.419-0.101
		c1.603-3.561,2.881-6.523,4.259-9.439c9.317-19.708,18.723-39.375,27.903-59.146c1.137-2.449,1.555-5.438,1.558-8.178
		c0.052-50.476-0.011-100.952-0.049-151.428c-0.001-1.79,0-3.58,0-5.739c5.925,0,11.323,0,17.266,0c0,39.065,0,77.962,0,116.858
		c0.427,0.148,0.854,0.298,1.281,0.446c0.76-1.446,1.592-2.859,2.268-4.345c12.678-27.877,25.407-55.731,37.906-83.688
		c1.484-3.32,3.263-4.418,6.719-4.225C316.382,48.821,321.206,48.62,327.004,48.62z"/>
	<path fill-rule="evenodd" clip-rule="evenodd" fill="#FF0000" d="M146.25,51.371c-18.724,54.436-37.001,107.575-55.841,162.35
		c29.833-7.328,58.302-14.321,87.208-21.421c0,6.903,0.178,13.454-0.193,19.973c-0.055,0.971-2.583,2.208-4.151,2.625
		c-24.618,6.541-49.266,12.97-73.908,19.42c-11.596,3.035-23.194,6.064-34.794,9.086c-1.575,0.411-3.165,0.766-5.731,1.382
		c2.024-6.035,3.745-11.292,5.546-16.521c19.794-57.454,39.631-114.894,59.327-172.382c1.15-3.355,2.496-4.886,6.259-4.605
		C135.066,51.655,140.211,51.371,146.25,51.371z"/>
</g>
</svg>